<svg width="478" height="201" viewBox="0 0 478 201" fill="none" xmlns="http://www.w3.org/2000/svg">
<g clip-path="url(#clip0_229_197)">
<g clip-path="url(#clip1_229_197)">
<path d="M0.00025928 120.233L0 183.694C-1.47632e-05 193.282 5.18503 201 11.6239 201H39.2978C45.7367 201 50.9199 193.282 50.9199 183.694L50.9196 0.00933813L33.2119 0.00900269V170.796C33.2119 174.562 31.1757 177.594 28.647 177.594H22.2746C19.746 177.594 17.7098 174.562 17.7098 170.796V120.233H0.00025928Z" fill="#0040FF"/>
<path d="M70.8661 0.00900269C64.4272 0.00900269 59.244 7.72995 59.244 17.318V183.694C59.244 193.282 64.4272 201 70.8661 201H107.134V177.594H81.2609C78.7323 177.594 76.6979 174.562 76.6979 170.796V148.904C76.6979 145.139 78.7323 142.106 81.2609 142.106H107.134V119.301H81.2609C78.7323 119.301 76.6979 116.269 76.6979 112.504V88.8913C76.6979 85.1259 78.7323 82.0965 81.2609 82.0965H107.134V0.00900269H70.8661Z" fill="#0040FF"/>
<path d="M127.547 0.00900269C121.109 0.00900269 115.924 7.72995 115.924 17.318V183.694C115.924 193.282 121.109 201 127.547 201L152.915 201C159.353 201 164.537 193.282 164.537 183.694V17.318C164.537 7.72995 159.353 0.00900269 152.915 0.00900269H127.547ZM139.234 82.2253H141.228C144.283 82.2253 146.742 85.8876 146.742 90.4371V169.382C146.742 173.932 144.283 177.594 141.228 177.594H139.234C136.179 177.594 133.72 173.932 133.72 169.382V90.4371C133.72 85.8876 136.179 82.2253 139.234 82.2253Z" fill="#0040FF"/>
<path d="M247.25 0.00900269C240.792 0.00900269 235.187 7.72995 234.684 17.318L225.046 201H241.622L245.324 142.106H261.615L265.317 201H281.893L272.255 17.318C271.752 7.72995 266.147 0.00900269 259.689 0.00900269H247.25ZM251.993 82.5715H254.945C256.567 82.5715 257.995 84.5067 258.146 86.9109L260.182 119.301H246.756L248.793 86.9109C248.944 84.5067 250.372 82.5715 251.993 82.5715Z" fill="#0040FF"/>
<path d="M289.709 0.0093689V201H306.049V142.6H314.734C319.195 142.6 323.05 147.935 323.377 154.561L325.669 201H343.262L338.729 147.847C338.647 146.882 338.502 145.944 338.322 145.024V144.992C338.314 144.949 338.302 144.911 338.293 144.868C338.177 144.292 338.043 143.727 337.891 143.172C337.882 143.137 337.874 143.101 337.864 143.065C337.18 140.599 336.16 138.367 334.898 136.488C334.586 136.023 334.259 135.583 333.919 135.165C333.914 135.165 333.91 135.15 333.905 135.143C333.898 135.129 333.889 135.128 333.882 135.118C333.552 134.715 333.212 134.334 332.86 133.977C332.841 133.958 332.823 133.94 332.804 133.921C332.441 133.558 332.069 133.219 331.685 132.909C334.829 130.369 337.306 125.993 338.322 120.828V17.3175C338.322 7.72948 333.139 0.0093689 326.7 0.0093689H289.709ZM306.049 82.2254H315.48C318.535 82.2254 320.994 85.8876 320.994 90.4371V111.884C320.994 116.434 318.535 120.096 315.48 120.096H306.049V82.2254Z" fill="#0040FF"/>
<path d="M349.93 0.00900269V201H386.921C393.36 201 398.543 193.282 398.543 183.694V17.318C398.543 7.72995 393.36 0.00947695 386.921 0.00942199L349.93 0.00900269ZM365.861 82.2253H377.097C380.152 82.2253 382.614 85.8876 382.614 90.4371V169.382C382.614 173.932 380.152 177.594 377.097 177.594H365.861V82.2253Z" fill="#0040FF"/>
<path d="M461.853 0.00946045V142.107H477.218V0.00946045H461.853ZM461.853 150.702V173.432H477.218V150.702H461.853Z" fill="#0040FF"/>
<path d="M70.8661 0.00900269C64.4272 0.00900269 59.244 7.72995 59.244 17.318V183.694C59.244 193.282 64.4272 201 70.8661 201H107.134V177.594H81.2609C78.7323 177.594 76.6979 174.562 76.6979 170.796V148.904C76.6979 145.139 78.7323 142.106 81.2609 142.106H107.134V119.301H81.2609C78.7323 119.301 76.6979 116.269 76.6979 112.504V88.8913C76.6979 85.1259 78.7323 82.0965 81.2609 82.0965H107.134V0.00900269H70.8661Z" fill="#0040FF"/>
<path d="M173.713 0.00900269V201H191.041V142.107L210.702 142.106C217.141 142.106 222.326 134.388 222.326 124.8V17.318C222.326 7.72995 217.141 0.00900269 210.702 0.00900269H173.713ZM191.041 82.0965H200.434C202.962 82.0965 204.997 85.1259 204.997 88.8913V112.504C204.997 116.269 202.962 119.301 200.434 119.301L191.041 119.301L191.041 82.0965Z" fill="#0040FF"/>
<path d="M404.286 0.00930786V124.8C404.286 134.388 409.471 142.106 415.91 142.106L436.877 142.107V171.398C436.877 175.163 434.842 178.195 432.313 178.195H418.909V201H441.276C447.714 201 452.9 193.282 452.9 183.694V0.00939172L436.877 0.00930786V119.302H426.179C423.65 119.301 421.616 116.269 421.616 112.504V0.00947558L404.286 0.00930786Z" fill="#0040FF"/>
</g>
</g>
<defs>
<clipPath id="clip0_229_197">
<rect width="478" height="201" fill="white"/>
</clipPath>
<clipPath id="clip1_229_197">
<rect width="478" height="201" fill="white"/>
</clipPath>
</defs>
</svg>
